<svg viewBox="0 0 1600 900" xmlns="http://www.w3.org/2000/svg" role="img" aria-label="A single human identity surrounded by hundreds of machine identities">
<defs>
  <radialGradient id="glow" cx="50%" cy="50%" r="50%">
    <stop offset="0%" stop-color="#ff9f0a" stop-opacity="0.55"/>
    <stop offset="100%" stop-color="#ff9f0a" stop-opacity="0"/>
  </radialGradient>
  <linearGradient id="bg" x1="0" y1="0" x2="1" y2="1">
    <stop offset="0%" stop-color="#0a0f16"/>
    <stop offset="100%" stop-color="#0d1420"/>
  </linearGradient>
</defs>
<rect width="1600" height="900" fill="url(#bg)"/>
<line x1="340" y1="470" x2="327" y2="455" stroke="#2997ff" stroke-width="0.7" opacity="0.14"/>
<line x1="340" y1="470" x2="346" y2="436" stroke="#2997ff" stroke-width="0.7" opacity="0.14"/>
<line x1="340" y1="470" x2="338" y2="511" stroke="#2997ff" stroke-width="0.7" opacity="0.14"/>
<line x1="340" y1="470" x2="338" y2="418" stroke="#2997ff" stroke-width="0.7" opacity="0.14"/>
<line x1="340" y1="470" x2="279" y2="495" stroke="#2997ff" stroke-width="0.7" opacity="0.14"/>
<line x1="340" y1="470" x2="356" y2="536" stroke="#2997ff" stroke-width="0.7" opacity="0.14"/>
<line x1="340" y1="470" x2="321" y2="398" stroke="#2997ff" stroke-width="0.7" opacity="0.14"/>
<line x1="340" y1="470" x2="328" y2="545" stroke="#2997ff" stroke-width="0.7" opacity="0.14"/>
<line x1="340" y1="470" x2="306" y2="400" stroke="#2997ff" stroke-width="0.7" opacity="0.14"/>
<line x1="340" y1="470" x2="263" y2="456" stroke="#2997ff" stroke-width="0.7" opacity="0.14"/>
<line x1="340" y1="470" x2="275" y2="527" stroke="#2997ff" stroke-width="0.7" opacity="0.14"/>
<line x1="340" y1="470" x2="313" y2="561" stroke="#2997ff" stroke-width="0.7" opacity="0.14"/>
<line x1="340" y1="470" x2="338" y2="354" stroke="#2997ff" stroke-width="0.7" opacity="0.14"/>
<line x1="340" y1="470" x2="339" y2="601" stroke="#2997ff" stroke-width="0.7" opacity="0.14"/>
<circle cx="758" cy="396" r="4.2" fill="#2997ff" opacity="0.45"/>
<circle cx="617" cy="362" r="2.2" fill="#2997ff" opacity="0.55"/>
<circle cx="1156" cy="807" r="2.2" fill="#2997ff" opacity="0.3"/>
<circle cx="1503" cy="436" r="2.2" fill="#2997ff" opacity="0.61"/>
<circle cx="1430" cy="503" r="2.8" fill="#2997ff" opacity="0.29"/>
<circle cx="976" cy="405" r="2.8" fill="#2997ff" opacity="0.2"/>
<circle cx="789" cy="596" r="3.4" fill="#2997ff" opacity="0.44"/>
<circle cx="1277" cy="246" r="2.2" fill="#2997ff" opacity="0.24"/>
<circle cx="338" cy="511" r="3.4" fill="#2997ff" opacity="0.23"/>
<circle cx="1401" cy="237" r="3.4" fill="#2997ff" opacity="0.28"/>
<circle cx="1256" cy="663" r="3.4" fill="#2997ff" opacity="0.5"/>
<circle cx="661" cy="663" r="2.8" fill="#2997ff" opacity="0.56"/>
<circle cx="1456" cy="338" r="2.2" fill="#2997ff" opacity="0.41"/>
<circle cx="1038" cy="368" r="2.8" fill="#2997ff" opacity="0.46"/>
<circle cx="1118" cy="222" r="4.2" fill="#2997ff" opacity="0.3"/>
<circle cx="1089" cy="782" r="2.8" fill="#2997ff" opacity="0.39"/>
<circle cx="1520" cy="487" r="2.2" fill="#2997ff" opacity="0.22"/>
<circle cx="973" cy="546" r="4.2" fill="#2997ff" opacity="0.55"/>
<circle cx="874" cy="776" r="2.2" fill="#2997ff" opacity="0.47"/>
<circle cx="1431" cy="535" r="4.2" fill="#2997ff" opacity="0.61"/>
<circle cx="1131" cy="802" r="2.2" fill="#2997ff" opacity="0.45"/>
<circle cx="543" cy="397" r="2.8" fill="#2997ff" opacity="0.26"/>
<circle cx="1455" cy="160" r="2.8" fill="#2997ff" opacity="0.52"/>
<circle cx="1047" cy="471" r="2.2" fill="#2997ff" opacity="0.31"/>
<circle cx="66" cy="155" r="2.2" fill="#2997ff" opacity="0.35"/>
<circle cx="628" cy="170" r="4.2" fill="#2997ff" opacity="0.27"/>
<circle cx="1289" cy="446" r="4.2" fill="#2997ff" opacity="0.44"/>
<circle cx="114" cy="118" r="2.8" fill="#2997ff" opacity="0.61"/>
<circle cx="738" cy="736" r="2.8" fill="#2997ff" opacity="0.51"/>
<circle cx="796" cy="77" r="3.4" fill="#2997ff" opacity="0.21"/>
<circle cx="1020" cy="247" r="2.8" fill="#2997ff" opacity="0.44"/>
<circle cx="1277" cy="543" r="2.2" fill="#2997ff" opacity="0.44"/>
<circle cx="745" cy="101" r="2.2" fill="#2997ff" opacity="0.37"/>
<circle cx="760" cy="296" r="4.2" fill="#2997ff" opacity="0.46"/>
<circle cx="263" cy="456" r="4.2" fill="#2997ff" opacity="0.49"/>
<circle cx="898" cy="74" r="2.2" fill="#2997ff" opacity="0.55"/>
<circle cx="663" cy="610" r="2.2" fill="#2997ff" opacity="0.53"/>
<circle cx="758" cy="318" r="4.2" fill="#2997ff" opacity="0.19"/>
<circle cx="338" cy="418" r="4.2" fill="#2997ff" opacity="0.64"/>
<circle cx="1131" cy="595" r="2.2" fill="#2997ff" opacity="0.63"/>
<circle cx="506" cy="590" r="2.2" fill="#2997ff" opacity="0.54"/>
<circle cx="1013" cy="359" r="2.2" fill="#2997ff" opacity="0.59"/>
<circle cx="1215" cy="527" r="3.4" fill="#2997ff" opacity="0.45"/>
<circle cx="842" cy="593" r="2.8" fill="#2997ff" opacity="0.52"/>
<circle cx="324" cy="793" r="3.4" fill="#2997ff" opacity="0.37"/>
<circle cx="730" cy="712" r="2.2" fill="#2997ff" opacity="0.56"/>
<circle cx="328" cy="545" r="4.2" fill="#2997ff" opacity="0.35"/>
<circle cx="755" cy="735" r="4.2" fill="#2997ff" opacity="0.48"/>
<circle cx="633" cy="224" r="2.8" fill="#2997ff" opacity="0.4"/>
<circle cx="1159" cy="698" r="3.4" fill="#2997ff" opacity="0.39"/>
<circle cx="1293" cy="308" r="2.2" fill="#2997ff" opacity="0.25"/>
<circle cx="932" cy="81" r="4.2" fill="#2997ff" opacity="0.42"/>
<circle cx="1102" cy="731" r="3.4" fill="#2997ff" opacity="0.23"/>
<circle cx="389" cy="192" r="3.4" fill="#2997ff" opacity="0.41"/>
<circle cx="1492" cy="453" r="3.4" fill="#2997ff" opacity="0.33"/>
<circle cx="158" cy="535" r="4.2" fill="#2997ff" opacity="0.58"/>
<circle cx="1447" cy="520" r="4.2" fill="#2997ff" opacity="0.47"/>
<circle cx="490" cy="607" r="2.2" fill="#2997ff" opacity="0.27"/>
<circle cx="1464" cy="547" r="4.2" fill="#2997ff" opacity="0.37"/>
<circle cx="565" cy="197" r="4.2" fill="#2997ff" opacity="0.18"/>
<circle cx="418" cy="117" r="4.2" fill="#2997ff" opacity="0.18"/>
<circle cx="958" cy="415" r="3.4" fill="#2997ff" opacity="0.52"/>
<circle cx="973" cy="140" r="4.2" fill="#2997ff" opacity="0.37"/>
<circle cx="1421" cy="141" r="2.8" fill="#2997ff" opacity="0.6"/>
<circle cx="957" cy="403" r="2.2" fill="#2997ff" opacity="0.37"/>
<circle cx="966" cy="397" r="2.8" fill="#2997ff" opacity="0.33"/>
<circle cx="1374" cy="163" r="4.2" fill="#2997ff" opacity="0.34"/>
<circle cx="1144" cy="257" r="2.2" fill="#2997ff" opacity="0.35"/>
<circle cx="178" cy="547" r="2.2" fill="#2997ff" opacity="0.46"/>
<circle cx="979" cy="224" r="3.4" fill="#2997ff" opacity="0.52"/>
<circle cx="1279" cy="299" r="2.2" fill="#2997ff" opacity="0.61"/>
<circle cx="261" cy="621" r="4.2" fill="#2997ff" opacity="0.51"/>
<circle cx="831" cy="430" r="4.2" fill="#2997ff" opacity="0.47"/>
<circle cx="1115" cy="492" r="2.2" fill="#2997ff" opacity="0.34"/>
<circle cx="450" cy="143" r="2.8" fill="#2997ff" opacity="0.22"/>
<circle cx="978" cy="621" r="2.2" fill="#2997ff" opacity="0.22"/>
<circle cx="1071" cy="733" r="2.2" fill="#2997ff" opacity="0.63"/>
<circle cx="674" cy="560" r="3.4" fill="#2997ff" opacity="0.54"/>
<circle cx="1135" cy="139" r="2.8" fill="#2997ff" opacity="0.56"/>
<circle cx="411" cy="318" r="2.2" fill="#2997ff" opacity="0.57"/>
<circle cx="1285" cy="577" r="4.2" fill="#2997ff" opacity="0.42"/>
<circle cx="1051" cy="660" r="3.4" fill="#2997ff" opacity="0.55"/>
<circle cx="984" cy="558" r="4.2" fill="#2997ff" opacity="0.5"/>
<circle cx="1237" cy="78" r="3.4" fill="#2997ff" opacity="0.2"/>
<circle cx="1474" cy="763" r="4.2" fill="#2997ff" opacity="0.54"/>
<circle cx="389" cy="720" r="4.2" fill="#2997ff" opacity="0.53"/>
<circle cx="253" cy="821" r="2.8" fill="#2997ff" opacity="0.61"/>
<circle cx="1168" cy="426" r="4.2" fill="#2997ff" opacity="0.51"/>
<circle cx="381" cy="779" r="2.8" fill="#2997ff" opacity="0.47"/>
<circle cx="1010" cy="314" r="2.8" fill="#2997ff" opacity="0.5"/>
<circle cx="1291" cy="117" r="3.4" fill="#2997ff" opacity="0.2"/>
<circle cx="1106" cy="582" r="3.4" fill="#2997ff" opacity="0.34"/>
<circle cx="511" cy="228" r="3.4" fill="#2997ff" opacity="0.24"/>
<circle cx="1502" cy="541" r="3.4" fill="#2997ff" opacity="0.46"/>
<circle cx="681" cy="146" r="4.2" fill="#2997ff" opacity="0.34"/>
<circle cx="956" cy="260" r="4.2" fill="#2997ff" opacity="0.29"/>
<circle cx="833" cy="741" r="4.2" fill="#2997ff" opacity="0.27"/>
<circle cx="849" cy="466" r="3.4" fill="#2997ff" opacity="0.52"/>
<circle cx="1530" cy="547" r="3.4" fill="#2997ff" opacity="0.39"/>
<circle cx="1361" cy="835" r="2.2" fill="#2997ff" opacity="0.64"/>
<circle cx="632" cy="835" r="2.8" fill="#2997ff" opacity="0.29"/>
<circle cx="855" cy="679" r="3.4" fill="#2997ff" opacity="0.18"/>
<circle cx="1090" cy="695" r="3.4" fill="#2997ff" opacity="0.43"/>
<circle cx="1000" cy="427" r="2.8" fill="#2997ff" opacity="0.34"/>
<circle cx="1444" cy="585" r="4.2" fill="#2997ff" opacity="0.33"/>
<circle cx="1333" cy="479" r="2.2" fill="#2997ff" opacity="0.23"/>
<circle cx="698" cy="98" r="2.8" fill="#2997ff" opacity="0.57"/>
<circle cx="1370" cy="734" r="2.2" fill="#2997ff" opacity="0.2"/>
<circle cx="1028" cy="98" r="4.2" fill="#2997ff" opacity="0.27"/>
<circle cx="1504" cy="794" r="4.2" fill="#2997ff" opacity="0.42"/>
<circle cx="200" cy="111" r="3.4" fill="#2997ff" opacity="0.2"/>
<circle cx="1450" cy="421" r="3.4" fill="#2997ff" opacity="0.52"/>
<circle cx="611" cy="755" r="4.2" fill="#2997ff" opacity="0.36"/>
<circle cx="338" cy="354" r="2.8" fill="#2997ff" opacity="0.32"/>
<circle cx="180" cy="821" r="2.8" fill="#2997ff" opacity="0.24"/>
<circle cx="562" cy="66" r="4.2" fill="#2997ff" opacity="0.38"/>
<circle cx="857" cy="632" r="2.8" fill="#2997ff" opacity="0.54"/>
<circle cx="1251" cy="638" r="4.2" fill="#2997ff" opacity="0.43"/>
<circle cx="1439" cy="419" r="2.8" fill="#2997ff" opacity="0.22"/>
<circle cx="1072" cy="694" r="2.8" fill="#2997ff" opacity="0.21"/>
<circle cx="141" cy="156" r="2.8" fill="#2997ff" opacity="0.47"/>
<circle cx="1466" cy="288" r="4.2" fill="#2997ff" opacity="0.44"/>
<circle cx="1501" cy="538" r="2.2" fill="#2997ff" opacity="0.26"/>
<circle cx="1326" cy="483" r="2.8" fill="#2997ff" opacity="0.62"/>
<circle cx="1375" cy="178" r="3.4" fill="#2997ff" opacity="0.47"/>
<circle cx="1429" cy="567" r="4.2" fill="#2997ff" opacity="0.57"/>
<circle cx="1091" cy="380" r="4.2" fill="#2997ff" opacity="0.46"/>
<circle cx="124" cy="691" r="4.2" fill="#2997ff" opacity="0.41"/>
<circle cx="836" cy="352" r="3.4" fill="#2997ff" opacity="0.56"/>
<circle cx="693" cy="709" r="4.2" fill="#2997ff" opacity="0.2"/>
<circle cx="1278" cy="270" r="4.2" fill="#2997ff" opacity="0.36"/>
<circle cx="1361" cy="661" r="2.2" fill="#2997ff" opacity="0.46"/>
<circle cx="780" cy="558" r="3.4" fill="#2997ff" opacity="0.49"/>
<circle cx="1050" cy="175" r="3.4" fill="#2997ff" opacity="0.35"/>
<circle cx="1110" cy="91" r="4.2" fill="#2997ff" opacity="0.41"/>
<circle cx="717" cy="267" r="3.4" fill="#2997ff" opacity="0.34"/>
<circle cx="1154" cy="220" r="2.8" fill="#2997ff" opacity="0.47"/>
<circle cx="575" cy="280" r="2.8" fill="#2997ff" opacity="0.4"/>
<circle cx="1282" cy="326" r="2.8" fill="#2997ff" opacity="0.63"/>
<circle cx="771" cy="759" r="2.8" fill="#2997ff" opacity="0.45"/>
<circle cx="570" cy="719" r="3.4" fill="#2997ff" opacity="0.48"/>
<circle cx="1132" cy="221" r="2.8" fill="#2997ff" opacity="0.63"/>
<circle cx="777" cy="357" r="2.8" fill="#2997ff" opacity="0.41"/>
<circle cx="1468" cy="763" r="2.8" fill="#2997ff" opacity="0.62"/>
<circle cx="513" cy="688" r="2.2" fill="#2997ff" opacity="0.4"/>
<circle cx="1021" cy="481" r="3.4" fill="#2997ff" opacity="0.22"/>
<circle cx="1377" cy="701" r="2.8" fill="#2997ff" opacity="0.31"/>
<circle cx="811" cy="147" r="3.4" fill="#2997ff" opacity="0.24"/>
<circle cx="787" cy="476" r="3.4" fill="#2997ff" opacity="0.3"/>
<circle cx="1095" cy="605" r="3.4" fill="#2997ff" opacity="0.45"/>
<circle cx="1274" cy="542" r="3.4" fill="#2997ff" opacity="0.39"/>
<circle cx="1458" cy="314" r="2.2" fill="#2997ff" opacity="0.25"/>
<circle cx="496" cy="742" r="3.4" fill="#2997ff" opacity="0.34"/>
<circle cx="331" cy="222" r="3.4" fill="#2997ff" opacity="0.47"/>
<circle cx="1146" cy="215" r="4.2" fill="#2997ff" opacity="0.41"/>
<circle cx="800" cy="78" r="2.8" fill="#2997ff" opacity="0.23"/>
<circle cx="852" cy="781" r="4.2" fill="#2997ff" opacity="0.53"/>
<circle cx="313" cy="561" r="2.8" fill="#2997ff" opacity="0.44"/>
<circle cx="1029" cy="387" r="3.4" fill="#2997ff" opacity="0.36"/>
<circle cx="379" cy="600" r="4.2" fill="#2997ff" opacity="0.28"/>
<circle cx="377" cy="128" r="3.4" fill="#2997ff" opacity="0.54"/>
<circle cx="1192" cy="438" r="2.8" fill="#2997ff" opacity="0.64"/>
<circle cx="710" cy="678" r="4.2" fill="#2997ff" opacity="0.3"/>
<circle cx="1075" cy="119" r="4.2" fill="#2997ff" opacity="0.42"/>
<circle cx="975" cy="439" r="3.4" fill="#2997ff" opacity="0.39"/>
<circle cx="1535" cy="536" r="3.4" fill="#2997ff" opacity="0.45"/>
<circle cx="541" cy="506" r="2.8" fill="#2997ff" opacity="0.27"/>
<circle cx="1267" cy="83" r="3.4" fill="#2997ff" opacity="0.53"/>
<circle cx="674" cy="215" r="3.4" fill="#2997ff" opacity="0.46"/>
<circle cx="1090" cy="748" r="3.4" fill="#2997ff" opacity="0.42"/>
<circle cx="1260" cy="722" r="3.4" fill="#2997ff" opacity="0.27"/>
<circle cx="1158" cy="445" r="2.2" fill="#2997ff" opacity="0.36"/>
<circle cx="912" cy="602" r="3.4" fill="#2997ff" opacity="0.47"/>
<circle cx="1309" cy="603" r="3.4" fill="#2997ff" opacity="0.34"/>
<circle cx="1199" cy="700" r="4.2" fill="#2997ff" opacity="0.22"/>
<circle cx="1099" cy="312" r="3.4" fill="#2997ff" opacity="0.26"/>
<circle cx="495" cy="240" r="3.4" fill="#2997ff" opacity="0.2"/>
<circle cx="1193" cy="429" r="3.4" fill="#2997ff" opacity="0.18"/>
<circle cx="659" cy="491" r="2.8" fill="#2997ff" opacity="0.39"/>
<circle cx="238" cy="772" r="2.8" fill="#2997ff" opacity="0.52"/>
<circle cx="828" cy="206" r="2.2" fill="#2997ff" opacity="0.37"/>
<circle cx="896" cy="469" r="2.2" fill="#2997ff" opacity="0.65"/>
<circle cx="891" cy="439" r="2.8" fill="#2997ff" opacity="0.64"/>
<circle cx="1535" cy="651" r="2.8" fill="#2997ff" opacity="0.31"/>
<circle cx="709" cy="495" r="4.2" fill="#2997ff" opacity="0.42"/>
<circle cx="1255" cy="419" r="3.4" fill="#2997ff" opacity="0.43"/>
<circle cx="1497" cy="654" r="3.4" fill="#2997ff" opacity="0.55"/>
<circle cx="567" cy="670" r="2.8" fill="#2997ff" opacity="0.5"/>
<circle cx="1411" cy="616" r="4.2" fill="#2997ff" opacity="0.53"/>
<circle cx="1399" cy="126" r="2.8" fill="#2997ff" opacity="0.64"/>
<circle cx="1494" cy="133" r="3.4" fill="#2997ff" opacity="0.42"/>
<circle cx="649" cy="839" r="2.8" fill="#2997ff" opacity="0.22"/>
<circle cx="498" cy="104" r="2.8" fill="#2997ff" opacity="0.46"/>
<circle cx="1450" cy="692" r="2.2" fill="#2997ff" opacity="0.31"/>
<circle cx="1323" cy="205" r="4.2" fill="#2997ff" opacity="0.31"/>
<circle cx="680" cy="522" r="4.2" fill="#2997ff" opacity="0.47"/>
<circle cx="1231" cy="662" r="2.8" fill="#2997ff" opacity="0.29"/>
<circle cx="1008" cy="248" r="3.4" fill="#2997ff" opacity="0.3"/>
<circle cx="1251" cy="813" r="2.2" fill="#2997ff" opacity="0.33"/>
<circle cx="505" cy="773" r="4.2" fill="#2997ff" opacity="0.26"/>
<circle cx="1410" cy="440" r="4.2" fill="#2997ff" opacity="0.19"/>
<circle cx="1128" cy="373" r="2.8" fill="#2997ff" opacity="0.65"/>
<circle cx="1496" cy="200" r="2.2" fill="#2997ff" opacity="0.28"/>
<circle cx="1097" cy="571" r="3.4" fill="#2997ff" opacity="0.47"/>
<circle cx="686" cy="827" r="4.2" fill="#2997ff" opacity="0.62"/>
<circle cx="1338" cy="244" r="4.2" fill="#2997ff" opacity="0.26"/>
<circle cx="1028" cy="678" r="3.4" fill="#2997ff" opacity="0.32"/>
<circle cx="1253" cy="711" r="2.2" fill="#2997ff" opacity="0.49"/>
<circle cx="275" cy="527" r="4.2" fill="#2997ff" opacity="0.25"/>
<circle cx="804" cy="483" r="4.2" fill="#2997ff" opacity="0.51"/>
<circle cx="1009" cy="751" r="3.4" fill="#2997ff" opacity="0.37"/>
<circle cx="1448" cy="761" r="4.2" fill="#2997ff" opacity="0.38"/>
<circle cx="321" cy="398" r="2.8" fill="#2997ff" opacity="0.18"/>
<circle cx="1012" cy="80" r="3.4" fill="#2997ff" opacity="0.37"/>
<circle cx="999" cy="825" r="2.8" fill="#2997ff" opacity="0.3"/>
<circle cx="273" cy="99" r="2.8" fill="#2997ff" opacity="0.47"/>
<circle cx="750" cy="594" r="3.4" fill="#2997ff" opacity="0.31"/>
<circle cx="1082" cy="219" r="2.2" fill="#2997ff" opacity="0.65"/>
<circle cx="622" cy="242" r="2.2" fill="#2997ff" opacity="0.43"/>
<circle cx="690" cy="369" r="2.8" fill="#2997ff" opacity="0.43"/>
<circle cx="1275" cy="186" r="2.8" fill="#2997ff" opacity="0.31"/>
<circle cx="339" cy="601" r="2.8" fill="#2997ff" opacity="0.36"/>
<circle cx="556" cy="685" r="2.8" fill="#2997ff" opacity="0.22"/>
<circle cx="667" cy="174" r="4.2" fill="#2997ff" opacity="0.55"/>
<circle cx="183" cy="143" r="2.8" fill="#2997ff" opacity="0.28"/>
<circle cx="519" cy="359" r="3.4" fill="#2997ff" opacity="0.19"/>
<circle cx="734" cy="833" r="2.2" fill="#2997ff" opacity="0.22"/>
<circle cx="726" cy="263" r="2.8" fill="#2997ff" opacity="0.45"/>
<circle cx="1228" cy="764" r="2.8" fill="#2997ff" opacity="0.5"/>
<circle cx="1322" cy="490" r="2.8" fill="#2997ff" opacity="0.54"/>
<circle cx="1253" cy="78" r="3.4" fill="#2997ff" opacity="0.29"/>
<circle cx="779" cy="239" r="4.2" fill="#2997ff" opacity="0.35"/>
<circle cx="1348" cy="838" r="2.8" fill="#2997ff" opacity="0.4"/>
<circle cx="1103" cy="234" r="4.2" fill="#2997ff" opacity="0.4"/>
<circle cx="577" cy="773" r="2.2" fill="#2997ff" opacity="0.38"/>
<circle cx="975" cy="111" r="2.8" fill="#2997ff" opacity="0.36"/>
<circle cx="1234" cy="247" r="2.2" fill="#2997ff" opacity="0.57"/>
<circle cx="1472" cy="434" r="3.4" fill="#2997ff" opacity="0.47"/>
<circle cx="1163" cy="613" r="4.2" fill="#2997ff" opacity="0.47"/>
<circle cx="1174" cy="230" r="4.2" fill="#2997ff" opacity="0.46"/>
<circle cx="956" cy="372" r="4.2" fill="#2997ff" opacity="0.25"/>
<circle cx="765" cy="603" r="3.4" fill="#2997ff" opacity="0.44"/>
<circle cx="356" cy="536" r="4.2" fill="#2997ff" opacity="0.3"/>
<circle cx="443" cy="751" r="2.8" fill="#2997ff" opacity="0.2"/>
<circle cx="624" cy="262" r="3.4" fill="#2997ff" opacity="0.6"/>
<circle cx="788" cy="505" r="2.8" fill="#2997ff" opacity="0.29"/>
<circle cx="1418" cy="340" r="2.2" fill="#2997ff" opacity="0.25"/>
<circle cx="1456" cy="364" r="3.4" fill="#2997ff" opacity="0.43"/>
<circle cx="1113" cy="475" r="2.8" fill="#2997ff" opacity="0.62"/>
<circle cx="591" cy="311" r="3.4" fill="#2997ff" opacity="0.22"/>
<circle cx="1278" cy="67" r="3.4" fill="#2997ff" opacity="0.43"/>
<circle cx="913" cy="538" r="2.8" fill="#2997ff" opacity="0.35"/>
<circle cx="1171" cy="222" r="2.2" fill="#2997ff" opacity="0.21"/>
<circle cx="951" cy="572" r="2.8" fill="#2997ff" opacity="0.48"/>
<circle cx="780" cy="495" r="2.8" fill="#2997ff" opacity="0.59"/>
<circle cx="587" cy="820" r="4.2" fill="#2997ff" opacity="0.38"/>
<circle cx="1208" cy="601" r="2.8" fill="#2997ff" opacity="0.42"/>
<circle cx="718" cy="232" r="4.2" fill="#2997ff" opacity="0.24"/>
<circle cx="473" cy="745" r="3.4" fill="#2997ff" opacity="0.18"/>
<circle cx="989" cy="216" r="4.2" fill="#2997ff" opacity="0.26"/>
<circle cx="986" cy="399" r="4.2" fill="#2997ff" opacity="0.44"/>
<circle cx="1391" cy="77" r="4.2" fill="#2997ff" opacity="0.37"/>
<circle cx="1502" cy="495" r="2.2" fill="#2997ff" opacity="0.46"/>
<circle cx="346" cy="436" r="2.2" fill="#2997ff" opacity="0.55"/>
<circle cx="1002" cy="660" r="2.2" fill="#2997ff" opacity="0.34"/>
<circle cx="932" cy="137" r="2.2" fill="#2997ff" opacity="0.35"/>
<circle cx="110" cy="506" r="4.2" fill="#2997ff" opacity="0.27"/>
<circle cx="1493" cy="262" r="4.2" fill="#2997ff" opacity="0.21"/>
<circle cx="948" cy="86" r="2.2" fill="#2997ff" opacity="0.5"/>
<circle cx="1275" cy="224" r="2.8" fill="#2997ff" opacity="0.29"/>
<circle cx="1066" cy="172" r="4.2" fill="#2997ff" opacity="0.42"/>
<circle cx="355" cy="661" r="2.2" fill="#2997ff" opacity="0.55"/>
<circle cx="946" cy="89" r="3.4" fill="#2997ff" opacity="0.25"/>
<circle cx="788" cy="722" r="3.4" fill="#2997ff" opacity="0.6"/>
<circle cx="1437" cy="806" r="4.2" fill="#2997ff" opacity="0.45"/>
<circle cx="708" cy="200" r="4.2" fill="#2997ff" opacity="0.19"/>
<circle cx="351" cy="641" r="2.2" fill="#2997ff" opacity="0.23"/>
<circle cx="349" cy="120" r="2.8" fill="#2997ff" opacity="0.19"/>
<circle cx="492" cy="362" r="2.2" fill="#2997ff" opacity="0.56"/>
<circle cx="1538" cy="644" r="2.2" fill="#2997ff" opacity="0.24"/>
<circle cx="732" cy="633" r="2.8" fill="#2997ff" opacity="0.31"/>
<circle cx="417" cy="363" r="4.2" fill="#2997ff" opacity="0.56"/>
<circle cx="176" cy="836" r="2.8" fill="#2997ff" opacity="0.5"/>
<circle cx="964" cy="457" r="2.2" fill="#2997ff" opacity="0.55"/>
<circle cx="761" cy="338" r="2.8" fill="#2997ff" opacity="0.2"/>
<circle cx="1434" cy="198" r="2.2" fill="#2997ff" opacity="0.43"/>
<circle cx="694" cy="620" r="3.4" fill="#2997ff" opacity="0.59"/>
<circle cx="224" cy="640" r="3.4" fill="#2997ff" opacity="0.48"/>
<circle cx="496" cy="670" r="2.8" fill="#2997ff" opacity="0.27"/>
<circle cx="161" cy="646" r="4.2" fill="#2997ff" opacity="0.29"/>
<circle cx="620" cy="435" r="2.2" fill="#2997ff" opacity="0.6"/>
<circle cx="1106" cy="132" r="3.4" fill="#2997ff" opacity="0.28"/>
<circle cx="744" cy="154" r="2.8" fill="#2997ff" opacity="0.46"/>
<circle cx="1424" cy="355" r="3.4" fill="#2997ff" opacity="0.28"/>
<circle cx="1457" cy="584" r="2.8" fill="#2997ff" opacity="0.41"/>
<circle cx="1053" cy="363" r="2.2" fill="#2997ff" opacity="0.33"/>
<circle cx="1513" cy="725" r="2.8" fill="#2997ff" opacity="0.21"/>
<circle cx="642" cy="806" r="4.2" fill="#2997ff" opacity="0.54"/>
<circle cx="419" cy="135" r="2.2" fill="#2997ff" opacity="0.46"/>
<circle cx="657" cy="810" r="2.2" fill="#2997ff" opacity="0.63"/>
<circle cx="789" cy="351" r="2.8" fill="#2997ff" opacity="0.61"/>
<circle cx="1481" cy="643" r="2.2" fill="#2997ff" opacity="0.64"/>
<circle cx="1005" cy="424" r="3.4" fill="#2997ff" opacity="0.46"/>
<circle cx="461" cy="290" r="4.2" fill="#2997ff" opacity="0.38"/>
<circle cx="1176" cy="254" r="2.8" fill="#2997ff" opacity="0.63"/>
<circle cx="1277" cy="182" r="3.4" fill="#2997ff" opacity="0.48"/>
<circle cx="852" cy="253" r="2.8" fill="#2997ff" opacity="0.62"/>
<circle cx="1197" cy="680" r="2.8" fill="#2997ff" opacity="0.42"/>
<circle cx="714" cy="164" r="2.2" fill="#2997ff" opacity="0.23"/>
<circle cx="997" cy="200" r="2.8" fill="#2997ff" opacity="0.46"/>
<circle cx="813" cy="269" r="3.4" fill="#2997ff" opacity="0.52"/>
<circle cx="485" cy="730" r="3.4" fill="#2997ff" opacity="0.59"/>
<circle cx="678" cy="380" r="3.4" fill="#2997ff" opacity="0.34"/>
<circle cx="654" cy="591" r="3.4" fill="#2997ff" opacity="0.37"/>
<circle cx="1310" cy="605" r="2.8" fill="#2997ff" opacity="0.24"/>
<circle cx="762" cy="831" r="4.2" fill="#2997ff" opacity="0.25"/>
<circle cx="758" cy="369" r="2.2" fill="#2997ff" opacity="0.21"/>
<circle cx="852" cy="670" r="2.8" fill="#2997ff" opacity="0.63"/>
<circle cx="500" cy="191" r="2.2" fill="#2997ff" opacity="0.28"/>
<circle cx="778" cy="359" r="2.8" fill="#2997ff" opacity="0.41"/>
<circle cx="279" cy="495" r="2.8" fill="#2997ff" opacity="0.21"/>
<circle cx="716" cy="212" r="2.2" fill="#2997ff" opacity="0.25"/>
<circle cx="1170" cy="796" r="2.8" fill="#2997ff" opacity="0.23"/>
<circle cx="524" cy="261" r="4.2" fill="#2997ff" opacity="0.64"/>
<circle cx="1240" cy="834" r="4.2" fill="#2997ff" opacity="0.38"/>
<circle cx="937" cy="189" r="2.8" fill="#2997ff" opacity="0.35"/>
<circle cx="1448" cy="668" r="3.4" fill="#2997ff" opacity="0.58"/>
<circle cx="1197" cy="729" r="2.2" fill="#2997ff" opacity="0.65"/>
<circle cx="1126" cy="200" r="2.2" fill="#2997ff" opacity="0.51"/>
<circle cx="1444" cy="749" r="2.8" fill="#2997ff" opacity="0.65"/>
<circle cx="1241" cy="642" r="3.4" fill="#2997ff" opacity="0.37"/>
<circle cx="1334" cy="640" r="2.8" fill="#2997ff" opacity="0.39"/>
<circle cx="1233" cy="186" r="2.8" fill="#2997ff" opacity="0.43"/>
<circle cx="1505" cy="70" r="2.8" fill="#2997ff" opacity="0.41"/>
<circle cx="1334" cy="758" r="3.4" fill="#2997ff" opacity="0.19"/>
<circle cx="1062" cy="219" r="2.8" fill="#2997ff" opacity="0.31"/>
<circle cx="1233" cy="299" r="4.2" fill="#2997ff" opacity="0.27"/>
<circle cx="713" cy="139" r="3.4" fill="#2997ff" opacity="0.59"/>
<circle cx="1027" cy="659" r="2.8" fill="#2997ff" opacity="0.47"/>
<circle cx="885" cy="206" r="3.4" fill="#2997ff" opacity="0.19"/>
<circle cx="1274" cy="135" r="2.2" fill="#2997ff" opacity="0.35"/>
<circle cx="1125" cy="402" r="2.2" fill="#2997ff" opacity="0.59"/>
<circle cx="743" cy="225" r="2.2" fill="#2997ff" opacity="0.34"/>
<circle cx="543" cy="205" r="3.4" fill="#2997ff" opacity="0.29"/>
<circle cx="1404" cy="578" r="2.8" fill="#2997ff" opacity="0.64"/>
<circle cx="1097" cy="544" r="4.2" fill="#2997ff" opacity="0.33"/>
<circle cx="891" cy="420" r="4.2" fill="#2997ff" opacity="0.46"/>
<circle cx="1420" cy="88" r="4.2" fill="#2997ff" opacity="0.33"/>
<circle cx="870" cy="466" r="2.8" fill="#2997ff" opacity="0.41"/>
<circle cx="1293" cy="96" r="3.4" fill="#2997ff" opacity="0.47"/>
<circle cx="1326" cy="251" r="2.8" fill="#2997ff" opacity="0.22"/>
<circle cx="1536" cy="577" r="2.8" fill="#2997ff" opacity="0.41"/>
<circle cx="713" cy="254" r="3.4" fill="#2997ff" opacity="0.52"/>
<circle cx="981" cy="723" r="2.2" fill="#2997ff" opacity="0.37"/>
<circle cx="1378" cy="458" r="3.4" fill="#2997ff" opacity="0.44"/>
<circle cx="722" cy="330" r="4.2" fill="#2997ff" opacity="0.55"/>
<circle cx="192" cy="524" r="2.2" fill="#2997ff" opacity="0.28"/>
<circle cx="1461" cy="510" r="4.2" fill="#2997ff" opacity="0.46"/>
<circle cx="1168" cy="687" r="3.4" fill="#2997ff" opacity="0.52"/>
<circle cx="849" cy="667" r="3.4" fill="#2997ff" opacity="0.61"/>
<circle cx="1195" cy="448" r="2.8" fill="#2997ff" opacity="0.47"/>
<circle cx="1099" cy="179" r="3.4" fill="#2997ff" opacity="0.31"/>
<circle cx="222" cy="399" r="3.4" fill="#2997ff" opacity="0.44"/>
<circle cx="1269" cy="362" r="4.2" fill="#2997ff" opacity="0.61"/>
<circle cx="1339" cy="623" r="3.4" fill="#2997ff" opacity="0.31"/>
<circle cx="612" cy="498" r="4.2" fill="#2997ff" opacity="0.25"/>
<circle cx="1464" cy="713" r="4.2" fill="#2997ff" opacity="0.52"/>
<circle cx="1393" cy="105" r="3.4" fill="#2997ff" opacity="0.41"/>
<circle cx="988" cy="550" r="3.4" fill="#2997ff" opacity="0.51"/>
<circle cx="1355" cy="832" r="2.8" fill="#2997ff" opacity="0.59"/>
<circle cx="311" cy="115" r="2.8" fill="#2997ff" opacity="0.31"/>
<circle cx="1205" cy="378" r="2.8" fill="#2997ff" opacity="0.62"/>
<circle cx="1041" cy="217" r="2.2" fill="#2997ff" opacity="0.43"/>
<circle cx="1326" cy="662" r="2.8" fill="#2997ff" opacity="0.21"/>
<circle cx="232" cy="732" r="3.4" fill="#2997ff" opacity="0.2"/>
<circle cx="881" cy="661" r="2.2" fill="#2997ff" opacity="0.41"/>
<circle cx="1334" cy="661" r="2.8" fill="#2997ff" opacity="0.26"/>
<circle cx="475" cy="724" r="2.8" fill="#2997ff" opacity="0.27"/>
<circle cx="1411" cy="643" r="2.8" fill="#2997ff" opacity="0.6"/>
<circle cx="1261" cy="787" r="4.2" fill="#2997ff" opacity="0.2"/>
<circle cx="1009" cy="212" r="2.2" fill="#2997ff" opacity="0.49"/>
<circle cx="327" cy="455" r="4.2" fill="#2997ff" opacity="0.58"/>
<circle cx="566" cy="223" r="2.8" fill="#2997ff" opacity="0.49"/>
<circle cx="1341" cy="362" r="2.8" fill="#2997ff" opacity="0.52"/>
<circle cx="1428" cy="300" r="2.2" fill="#2997ff" opacity="0.54"/>
<circle cx="1010" cy="753" r="2.8" fill="#2997ff" opacity="0.27"/>
<circle cx="306" cy="400" r="2.8" fill="#2997ff" opacity="0.44"/>
<circle cx="1507" cy="764" r="2.8" fill="#2997ff" opacity="0.3"/>
<circle cx="918" cy="129" r="2.2" fill="#2997ff" opacity="0.56"/>
<circle cx="1088" cy="191" r="4.2" fill="#2997ff" opacity="0.32"/>
<circle cx="682" cy="372" r="2.2" fill="#2997ff" opacity="0.32"/>
<circle cx="659" cy="444" r="2.2" fill="#2997ff" opacity="0.56"/>
<circle cx="711" cy="809" r="3.4" fill="#2997ff" opacity="0.34"/>
<circle cx="526" cy="535" r="2.2" fill="#2997ff" opacity="0.53"/>
<circle cx="970" cy="577" r="3.4" fill="#2997ff" opacity="0.38"/>
<circle cx="1127" cy="805" r="2.2" fill="#2997ff" opacity="0.5"/>
<circle cx="346" cy="226" r="4.2" fill="#2997ff" opacity="0.61"/>
<circle cx="664" cy="347" r="3.4" fill="#2997ff" opacity="0.28"/>
<circle cx="548" cy="763" r="2.8" fill="#2997ff" opacity="0.64"/>
<circle cx="933" cy="525" r="2.8" fill="#2997ff" opacity="0.57"/>
<circle cx="1166" cy="518" r="4.2" fill="#2997ff" opacity="0.23"/>
<circle cx="378" cy="773" r="2.2" fill="#2997ff" opacity="0.19"/>
<circle cx="810" cy="586" r="4.2" fill="#2997ff" opacity="0.24"/>
<circle cx="585" cy="829" r="2.8" fill="#2997ff" opacity="0.22"/>
<circle cx="861" cy="599" r="2.8" fill="#2997ff" opacity="0.28"/>
<circle cx="1346" cy="429" r="4.2" fill="#2997ff" opacity="0.55"/>
<circle cx="455" cy="835" r="3.4" fill="#2997ff" opacity="0.22"/>
<circle cx="1409" cy="591" r="4.2" fill="#2997ff" opacity="0.32"/>
<circle cx="988" cy="173" r="2.8" fill="#2997ff" opacity="0.35"/>
<circle cx="784" cy="120" r="2.8" fill="#2997ff" opacity="0.44"/>
<circle cx="1394" cy="124" r="3.4" fill="#2997ff" opacity="0.35"/>
<circle cx="1228" cy="823" r="2.8" fill="#2997ff" opacity="0.48"/>
<circle cx="882" cy="400" r="2.8" fill="#2997ff" opacity="0.51"/>
<circle cx="1024" cy="174" r="3.4" fill="#2997ff" opacity="0.56"/>
<circle cx="1099" cy="590" r="4.2" fill="#2997ff" opacity="0.42"/>
<circle cx="1158" cy="455" r="2.8" fill="#2997ff" opacity="0.42"/>
<circle cx="636" cy="392" r="2.2" fill="#2997ff" opacity="0.24"/>
<circle cx="1283" cy="305" r="2.8" fill="#2997ff" opacity="0.64"/>
<circle cx="563" cy="601" r="2.2" fill="#2997ff" opacity="0.25"/>
<circle cx="1359" cy="535" r="3.4" fill="#2997ff" opacity="0.58"/>
<circle cx="1146" cy="279" r="2.2" fill="#2997ff" opacity="0.39"/>
<circle cx="1404" cy="78" r="2.2" fill="#2997ff" opacity="0.19"/>
<circle cx="234" cy="152" r="2.2" fill="#2997ff" opacity="0.44"/>
<circle cx="366" cy="735" r="2.8" fill="#2997ff" opacity="0.19"/>
<circle cx="1487" cy="295" r="4.2" fill="#2997ff" opacity="0.18"/>
<circle cx="1357" cy="527" r="3.4" fill="#2997ff" opacity="0.62"/>
<circle cx="1476" cy="430" r="2.8" fill="#2997ff" opacity="0.28"/>
<circle cx="1434" cy="721" r="2.2" fill="#2997ff" opacity="0.59"/>
<circle cx="1499" cy="515" r="2.2" fill="#2997ff" opacity="0.19"/>
<circle cx="1186" cy="82" r="4.2" fill="#2997ff" opacity="0.4"/>
<circle cx="340" cy="470" r="70" fill="url(#glow)"/>
<circle cx="340" cy="470" r="9" fill="#ff9f0a"/>
<circle cx="340" cy="470" r="17" fill="none" stroke="#ff9f0a" stroke-width="1.4" opacity="0.6"/>
<text x="340" y="522" font-family="-apple-system, 'Helvetica Neue', Arial, sans-serif" font-size="21" fill="#e8edf4" text-anchor="middle" font-weight="600">one of you</text>
<text x="1170" y="118" font-family="-apple-system, 'Helvetica Neue', Arial, sans-serif" font-size="21" fill="#8aa4c4" text-anchor="middle" font-weight="600">everything else</text>
</svg>